<?xml version="1.0" encoding="UTF-8"?>
<svg xmlns="http://www.w3.org/2000/svg" xmlns:xlink="http://www.w3.org/1999/xlink" width="100pt" height="56pt" viewBox="0 0 100 56" version="1.1">
<g id="surface1">
<path style=" stroke:none;fill-rule:nonzero;fill:rgb(0%,0%,0%);fill-opacity:1;" d="M 42.636719 0.59375 L 42.414062 0.859375 C 42.292969 1.007812 41.574219 1.890625 40.820312 2.820312 L 39.449219 4.507812 L 39.53125 4.601562 C 39.578125 4.652344 42.078125 7.5625 45.085938 11.074219 C 48.089844 14.585938 50.671875 17.664062 50.710938 17.707031 C 50.789062 17.625 53.402344 14.460938 56.390625 10.964844 C 59.378906 7.472656 61.851562 4.59375 61.878906 4.558594 C 61.925781 4.503906 61.769531 4.300781 60.5 2.746094 C 59.710938 1.789062 59.070312 0.988281 59.070312 0.976562 C 59.070312 0.964844 59.003906 0.875 58.914062 0.773438 L 58.757812 0.59375 M 50.355469 1.09375 C 50.355469 1.125 46.40625 4.132812 46.363281 4.136719 C 46.328125 4.140625 43.546875 1.230469 43.472656 1.117188 M 58.238281 1.074219 L 56.679688 2.636719 C 55.824219 3.492188 55.113281 4.195312 55.105469 4.195312 C 55.097656 4.195312 54.214844 3.523438 53.15625 2.707031 C 52.097656 1.886719 51.195312 1.195312 51.164062 1.175781 C 51.128906 1.152344 51.097656 1.125 51.097656 1.109375 M 44.277344 2.746094 L 45.710938 4.253906 L 44.378906 4.265625 C 43.648438 4.269531 42.441406 4.269531 41.691406 4.265625 L 40.332031 4.253906 L 41.546875 2.738281 C 42.214844 1.90625 42.78125 1.230469 42.800781 1.234375 C 42.828125 1.238281 43.488281 1.921875 44.277344 2.746094 Z M 55.757812 4.269531 L 57.21875 2.804688 C 58.023438 2 58.691406 1.339844 58.691406 1.339844 C 58.691406 1.339844 59.21875 1.980469 59.855469 2.757812 C 60.496094 3.539062 61.03125 4.199219 61.050781 4.21875 M 52.5625 2.894531 L 54.339844 4.253906 L 52.511719 4.265625 C 51.507812 4.269531 49.871094 4.269531 48.882812 4.265625 L 47.085938 4.253906 L 48.890625 2.871094 C 50.011719 2.019531 50.722656 1.5 50.746094 1.515625 C 50.773438 1.527344 51.589844 2.148438 52.5625 2.894531 Z M 46.140625 4.804688 L 48.039062 10.347656 C 49.089844 13.398438 49.941406 15.898438 49.9375 15.902344 C 49.933594 15.910156 49.304688 15.183594 48.535156 14.292969 C 47.773438 13.398438 45.660156 10.941406 43.84375 8.828125 C 42.027344 6.714844 40.503906 4.945312 40.453125 4.882812 L 40.355469 4.785156 M 54.769531 4.789062 L 54.679688 5.035156 C 54.636719 5.175781 53.730469 7.800781 52.675781 10.871094 C 51.621094 13.945312 50.746094 16.480469 50.730469 16.507812 C 50.707031 16.539062 50.683594 16.507812 50.648438 16.394531 C 50.617188 16.308594 49.707031 13.667969 48.632812 10.535156 C 47.558594 7.402344 46.84375 4.828125 46.835938 4.8125 M 61.054688 4.789062 L 60.960938 4.886719 C 60.910156 4.949219 60.3125 5.640625 59.628906 6.441406 C 58.472656 7.792969 57.019531 9.476562 53.621094 13.4375 C 52.859375 14.324219 52.0625 15.246094 51.859375 15.484375 C 51.65625 15.71875 51.484375 15.914062 51.480469 15.910156 C 51.472656 15.902344 55.183594 5.058594 55.269531 4.835938 "/>
<path style=" stroke:none;fill-rule:nonzero;fill:rgb(0%,0%,0%);fill-opacity:1;" d="M 21.480469 55.601562 L 21.480469 55.199219 C 21.640625 55.199219 21.800781 55.160156 21.921875 55.078125 C 22.039062 55.039062 22.199219 54.960938 22.28125 54.839844 C 22.398438 54.71875 22.441406 54.601562 22.519531 54.441406 C 22.558594 54.28125 22.601562 54.121094 22.601562 53.921875 L 22.601562 49.679688 L 23.039062 49.679688 L 23.039062 53.960938 C 23.039062 54.238281 23 54.441406 22.921875 54.640625 C 22.839844 54.839844 22.71875 55 22.601562 55.160156 C 22.480469 55.28125 22.320312 55.398438 22.121094 55.480469 C 21.878906 55.558594 21.679688 55.601562 21.480469 55.601562 Z M 21.480469 55.601562 "/>
<path style=" stroke:none;fill-rule:nonzero;fill:rgb(0%,0%,0%);fill-opacity:1;" d="M 26.359375 54.601562 L 26.359375 49.71875 L 29.320312 49.71875 L 29.320312 50.121094 L 26.800781 50.121094 L 26.800781 51.921875 L 29.039062 51.921875 L 29.039062 52.320312 L 26.800781 52.320312 L 26.800781 54.160156 L 29.398438 54.160156 L 29.398438 54.558594 Z M 26.359375 54.601562 "/>
<path style=" stroke:none;fill-rule:nonzero;fill:rgb(0%,0%,0%);fill-opacity:1;" d="M 39.121094 49.71875 L 39.558594 49.71875 C 39.199219 50.558594 38.839844 51.441406 38.480469 52.28125 C 38.121094 53.121094 37.761719 53.960938 37.398438 54.839844 L 36.160156 51.921875 C 36.160156 51.878906 36.160156 51.839844 36.121094 51.800781 C 36.078125 51.761719 36.121094 51.71875 36.078125 51.679688 C 36 51.960938 35.921875 52.199219 35.800781 52.480469 C 35.679688 52.761719 35.601562 53 35.480469 53.28125 C 35.359375 53.558594 35.238281 53.800781 35.121094 54.078125 C 35 54.359375 34.878906 54.601562 34.800781 54.839844 C 34.441406 54 34.078125 53.121094 33.71875 52.28125 C 33.359375 51.441406 33 50.601562 32.640625 49.71875 L 33.078125 49.71875 C 33.359375 50.398438 33.640625 51.039062 33.921875 51.679688 C 34.199219 52.320312 34.480469 53 34.761719 53.640625 C 34.761719 53.679688 34.761719 53.71875 34.800781 53.761719 C 34.800781 53.800781 34.800781 53.839844 34.839844 53.878906 C 34.921875 53.640625 34.960938 53.441406 35.078125 53.199219 C 35.199219 52.960938 35.238281 52.761719 35.359375 52.519531 C 35.441406 52.28125 35.558594 52.078125 35.640625 51.839844 C 35.761719 51.640625 35.839844 51.398438 35.921875 51.199219 C 35.800781 50.921875 35.71875 50.679688 35.601562 50.441406 C 35.480469 50.199219 35.398438 49.921875 35.28125 49.679688 L 35.71875 49.679688 C 36 50.359375 36.28125 51 36.558594 51.640625 C 36.839844 52.28125 37.121094 52.960938 37.398438 53.601562 C 37.398438 53.640625 37.398438 53.679688 37.441406 53.71875 C 37.441406 53.761719 37.441406 53.800781 37.480469 53.839844 C 37.480469 53.800781 37.480469 53.761719 37.519531 53.71875 C 37.519531 53.679688 37.519531 53.640625 37.558594 53.601562 C 37.839844 52.921875 38.121094 52.28125 38.398438 51.640625 C 38.558594 51.039062 38.839844 50.359375 39.121094 49.71875 Z M 39.121094 49.71875 "/>
<path style=" stroke:none;fill-rule:nonzero;fill:rgb(0%,0%,0%);fill-opacity:1;" d="M 42.761719 54.601562 L 42.761719 49.71875 L 45.71875 49.71875 L 45.71875 50.121094 L 43.199219 50.121094 L 43.199219 51.921875 L 45.441406 51.921875 L 45.441406 52.320312 L 43.199219 52.320312 L 43.199219 54.160156 L 45.800781 54.160156 L 45.800781 54.558594 Z M 42.761719 54.601562 "/>
<path style=" stroke:none;fill-rule:nonzero;fill:rgb(0%,0%,0%);fill-opacity:1;" d="M 49.160156 54.601562 L 49.160156 49.71875 L 49.601562 49.71875 L 49.601562 54.199219 L 52.199219 54.199219 L 52.199219 54.601562 Z M 49.160156 54.601562 "/>
<path style=" stroke:none;fill-rule:nonzero;fill:rgb(0%,0%,0%);fill-opacity:1;" d="M 55.519531 54.601562 L 55.519531 49.71875 L 55.960938 49.71875 L 55.960938 54.199219 L 58.558594 54.199219 L 58.558594 54.601562 Z M 55.519531 54.601562 "/>
<path style=" stroke:none;fill-rule:nonzero;fill:rgb(0%,0%,0%);fill-opacity:1;" d="M 61.878906 54.601562 L 61.878906 49.71875 L 64.839844 49.71875 L 64.839844 50.121094 L 62.320312 50.121094 L 62.320312 51.921875 L 64.558594 51.921875 L 64.558594 52.320312 L 62.320312 52.320312 L 62.320312 54.160156 L 64.921875 54.160156 L 64.921875 54.558594 Z M 61.878906 54.601562 "/>
<path style=" stroke:none;fill-rule:nonzero;fill:rgb(0%,0%,0%);fill-opacity:1;" d="M 68.199219 54.601562 L 68.199219 49.71875 L 69.320312 49.71875 C 69.480469 49.71875 69.640625 49.71875 69.839844 49.800781 C 70.039062 49.839844 70.199219 49.921875 70.359375 50.039062 C 70.519531 50.160156 70.640625 50.28125 70.761719 50.441406 C 70.878906 50.601562 70.921875 50.800781 70.921875 51.039062 C 70.921875 51.398438 70.839844 51.679688 70.640625 51.878906 C 70.480469 52.121094 70.199219 52.28125 69.878906 52.320312 C 70.039062 52.71875 70.238281 53.078125 70.441406 53.441406 C 70.601562 53.839844 70.800781 54.199219 71 54.558594 L 70.519531 54.558594 C 70.359375 54.160156 70.160156 53.800781 70 53.441406 C 69.839844 53.078125 69.640625 52.679688 69.480469 52.320312 C 69.441406 52.320312 69.441406 52.320312 69.398438 52.320312 C 69.359375 52.320312 69.320312 52.320312 69.320312 52.320312 L 68.761719 52.320312 L 68.761719 54.558594 Z M 68.640625 51.921875 L 69.320312 51.921875 C 69.558594 51.921875 69.71875 51.878906 69.878906 51.839844 C 70.039062 51.800781 70.160156 51.71875 70.238281 51.601562 C 70.320312 51.519531 70.359375 51.398438 70.398438 51.320312 C 70.441406 51.199219 70.441406 51.121094 70.441406 51 C 70.441406 50.878906 70.398438 50.761719 70.359375 50.679688 C 70.320312 50.558594 70.238281 50.480469 70.121094 50.398438 C 70 50.320312 69.878906 50.28125 69.761719 50.199219 C 69.640625 50.160156 69.480469 50.121094 69.320312 50.121094 L 68.640625 50.121094 Z M 68.640625 51.921875 "/>
<path style=" stroke:none;fill-rule:nonzero;fill:rgb(0%,0%,0%);fill-opacity:1;" d="M 76 52.71875 L 76 54.601562 L 75.480469 54.601562 L 75.480469 52.71875 C 75.199219 52.199219 74.878906 51.71875 74.601562 51.199219 C 74.320312 50.679688 74 50.199219 73.71875 49.679688 L 74.238281 49.679688 C 74.480469 50.078125 74.71875 50.519531 74.960938 50.878906 C 75.199219 51.28125 75.441406 51.679688 75.679688 52.078125 C 75.679688 52.121094 75.71875 52.160156 75.71875 52.199219 C 75.71875 52.238281 75.71875 52.28125 75.761719 52.320312 C 75.761719 52.28125 75.800781 52.238281 75.800781 52.199219 C 75.800781 52.160156 75.839844 52.121094 75.839844 52.078125 C 76.078125 51.679688 76.320312 51.238281 76.558594 50.878906 C 76.800781 50.480469 77.039062 50.078125 77.28125 49.679688 L 77.800781 49.679688 C 77.519531 50.199219 77.199219 50.679688 76.921875 51.199219 C 76.601562 51.71875 76.320312 52.238281 76 52.71875 Z M 76 52.71875 "/>
<path style=" stroke:none;fill-rule:nonzero;fill:rgb(0%,0%,0%);fill-opacity:1;" d="M 20.960938 41.761719 L 21.199219 41.761719 L 21.199219 42.039062 L 14.878906 42.039062 L 14.878906 41.761719 L 15.121094 41.761719 C 15.519531 41.761719 15.800781 41.640625 16 41.359375 C 16.199219 41.121094 16.28125 40.878906 16.28125 40.640625 C 16.28125 40.398438 16.238281 40.199219 16.160156 39.960938 L 14.398438 35.238281 L 6.839844 35.238281 L 4.960938 40.039062 C 4.878906 40.28125 4.839844 40.480469 4.839844 40.71875 C 4.839844 40.921875 4.960938 41.160156 5.121094 41.398438 C 5.320312 41.640625 5.601562 41.800781 6 41.800781 L 6.238281 41.800781 L 6.238281 42.078125 L 0.640625 42.078125 L 0.640625 41.800781 L 0.878906 41.800781 C 1.359375 41.800781 1.800781 41.640625 2.238281 41.359375 C 2.679688 41.078125 3.039062 40.640625 3.320312 40.039062 L 9.640625 25 C 10.320312 23.480469 10.679688 22.519531 10.679688 22.121094 L 10.921875 22.121094 L 18.398438 40.039062 C 18.679688 40.601562 19 41.039062 19.480469 41.359375 C 20 41.601562 20.441406 41.761719 20.960938 41.761719 Z M 7.199219 34.398438 L 14.078125 34.398438 L 10.71875 25.441406 Z M 7.199219 34.398438 "/>
<path style=" stroke:none;fill-rule:nonzero;fill:rgb(0%,0%,0%);fill-opacity:1;" d="M 22.878906 41.761719 C 23.359375 41.761719 23.761719 41.601562 24.121094 41.238281 C 24.480469 40.878906 24.640625 40.480469 24.679688 40 L 24.679688 24.519531 C 24.679688 24.039062 24.480469 23.640625 24.121094 23.28125 C 23.761719 22.921875 23.359375 22.761719 22.878906 22.761719 L 22.519531 22.761719 L 22.519531 22.480469 L 28.640625 22.480469 L 28.640625 22.761719 L 28.28125 22.761719 C 27.601562 22.761719 27.078125 23.039062 26.761719 23.640625 C 26.601562 23.921875 26.519531 24.199219 26.519531 24.519531 L 26.519531 41.199219 L 30.519531 41.199219 C 31.878906 41.199219 32.960938 40.878906 33.679688 40.28125 C 34.398438 39.679688 35 38.761719 35.480469 37.519531 L 35.761719 37.519531 L 34.121094 42.039062 L 22.519531 42.039062 L 22.519531 41.761719 Z M 22.878906 41.761719 "/>
<path style=" stroke:none;fill-rule:nonzero;fill:rgb(0%,0%,0%);fill-opacity:1;" d="M 61.679688 41.761719 L 62.121094 41.761719 L 62.121094 42.039062 L 56.078125 42.039062 L 56.078125 41.800781 L 56.480469 41.800781 C 56.800781 41.800781 57.078125 41.679688 57.28125 41.398438 C 57.519531 41.160156 57.601562 40.878906 57.558594 40.558594 L 56.320312 26.519531 L 50.441406 39.601562 C 49.921875 40.71875 49.601562 41.679688 49.480469 42.441406 L 49.199219 42.441406 L 42.039062 26.921875 L 40.839844 40.558594 C 40.800781 40.839844 40.878906 41.121094 41.121094 41.398438 C 41.359375 41.640625 41.601562 41.800781 41.921875 41.800781 L 42.359375 41.800781 L 42.359375 42.039062 L 36.960938 42.039062 L 36.960938 41.761719 L 37.398438 41.761719 C 37.921875 41.761719 38.359375 41.601562 38.761719 41.28125 C 39.160156 40.960938 39.359375 40.519531 39.441406 40 L 41.519531 22.078125 L 41.800781 22.078125 L 49.601562 38.921875 L 57.238281 22.078125 L 57.480469 22.078125 L 59.640625 40 C 59.71875 40.761719 60.121094 41.28125 60.761719 41.558594 C 61.039062 41.679688 61.320312 41.761719 61.679688 41.761719 Z M 61.679688 41.761719 "/>
<path style=" stroke:none;fill-rule:nonzero;fill:rgb(0%,0%,0%);fill-opacity:1;" d="M 82.558594 41.761719 L 82.800781 41.761719 L 82.800781 42.039062 L 76.519531 42.039062 L 76.519531 41.761719 L 76.761719 41.761719 C 77.160156 41.761719 77.441406 41.640625 77.640625 41.359375 C 77.839844 41.121094 77.921875 40.878906 77.921875 40.640625 C 77.921875 40.398438 77.878906 40.199219 77.800781 39.960938 L 76 35.238281 L 68.441406 35.238281 L 66.558594 40.039062 C 66.480469 40.28125 66.441406 40.480469 66.441406 40.71875 C 66.441406 40.921875 66.558594 41.160156 66.71875 41.398438 C 66.921875 41.640625 67.199219 41.800781 67.601562 41.800781 L 67.839844 41.800781 L 67.839844 42.078125 L 62.199219 42.078125 L 62.199219 41.800781 L 62.441406 41.800781 C 62.921875 41.800781 63.359375 41.640625 63.800781 41.359375 C 64.238281 41.078125 64.601562 40.640625 64.878906 40.039062 L 71.199219 25 C 71.878906 23.480469 72.238281 22.519531 72.238281 22.121094 L 72.480469 22.121094 L 79.960938 40.039062 C 80.238281 40.601562 80.558594 41.039062 81.039062 41.359375 C 81.601562 41.601562 82.078125 41.761719 82.558594 41.761719 Z M 68.800781 34.398438 L 75.679688 34.398438 L 72.320312 25.441406 Z M 68.800781 34.398438 "/>
<path style=" stroke:none;fill-rule:nonzero;fill:rgb(0%,0%,0%);fill-opacity:1;" d="M 98.761719 42.039062 L 84.121094 42.039062 L 84.121094 41.800781 L 95.839844 23.28125 L 86.441406 23.28125 C 85.960938 23.28125 85.601562 23.480469 85.28125 23.800781 C 84.960938 24.121094 84.800781 24.519531 84.800781 24.960938 L 84.800781 25.480469 L 84.519531 25.480469 L 84.519531 21.960938 C 84.800781 22.078125 85.28125 22.199219 86 22.28125 C 86.71875 22.398438 87.359375 22.441406 87.921875 22.441406 L 95.679688 22.441406 C 96.601562 22.441406 97.28125 22.398438 97.761719 22.28125 C 98.238281 22.160156 98.519531 22.121094 98.640625 22.078125 L 98.640625 22.320312 L 86.679688 41.199219 L 95.558594 41.199219 C 96.558594 41.199219 97.359375 40.878906 98 40.238281 C 98.640625 39.601562 99.121094 38.761719 99.398438 37.71875 L 99.679688 37.71875 Z M 98.761719 42.039062 "/>
</g>
</svg>
